<?xml version="1.0" encoding="UTF-8"?>
<!DOCTYPE svg PUBLIC "-//W3C//DTD SVG 1.1//EN" "http://www.w3.org/Graphics/SVG/1.1/DTD/svg11.dtd">
<!-- Creator: CorelDRAW 2019 (64-Bit) -->
<svg xmlns="http://www.w3.org/2000/svg" xml:space="preserve" width="2.55906in" height="2.55906in" version="1.1" style="shape-rendering:geometricPrecision; text-rendering:geometricPrecision; image-rendering:optimizeQuality; fill-rule:evenodd; clip-rule:evenodd"
viewBox="0 0 2559.06 2559.06"
 xmlns:xlink="http://www.w3.org/1999/xlink">
 <defs>
  <style type="text/css">
   <![CDATA[
    .fil2 {fill:#F57F35}
    .fil0 {fill:#FBB732}
    .fil1 {fill:#FEF9F6}
   ]]>
  </style>
 </defs>
 <g id="Layer_x0020_1">
  <metadata id="CorelCorpID_0Corel-Layer"/>
  <g id="_1717480327872">
   <path class="fil0" d="M773.69 469.59c130.37,-35.34 106.55,90.22 1.85,113.21 -116.4,25.56 -124.35,-80 -1.85,-113.21zm-185.37 -119.37c86.47,-35.64 100.9,47.45 24.05,75.61 -82.2,30.12 -115.36,-37.97 -24.05,-75.61zm351.01 -36.69c-8.19,-85.35 131.84,-114.24 152.54,-68.19 23.97,53.34 -86,122.09 -152.54,68.19zm157.96 878.37c6.31,-3.61 -7.52,-9.5 54.91,-13.88 22.64,-1.59 44.3,-3.23 66.89,-5.39 41.19,-3.93 77.68,-4.57 119.38,-3.76 -1.85,1.1 -4.25,2.7 -5.54,3.3 -1.28,0.59 -4,2.35 -5.62,3.02 -31.06,12.98 -164.68,29.31 -189.94,28.19 -58.41,-4.78 -282.28,35.19 -349.31,50.19 -35.86,8.03 -210.63,45.89 -231.93,67.4 -26.3,26.54 -16.98,61.85 6.08,77.59 40.08,27.35 296.31,-13.28 361.99,-19.5 308.89,-29.28 877.24,-81.57 1149.96,-61.56 72.01,5.28 356.91,43.19 309.32,-71.62 -19.88,-47.96 -105.21,-34.33 -164.42,-35.7 -69.22,-1.59 -136.87,-5.12 -203.26,-8.54 15.82,-14.73 79.99,-41.68 44.84,-93.09 -44.95,-65.74 -625.22,-56.44 -725.15,-50.03 -101.2,6.49 -194.83,20.46 -297.21,12.44 166.98,-59.2 709.65,-116.41 908.02,-135.67 85.75,-8.33 268.84,10.15 302.96,-47.85 39.43,-95.78 -86.93,-359.56 -129.4,-421.84 -78.56,-115.24 -164.22,-193.04 -296.51,-261.22 -238.99,-123.18 -674.59,-146.28 -969.04,-77.49 -388.07,90.65 -676.3,322.32 -670.53,723.42 3.57,248.46 425.71,113.36 670.3,123.08 -29.74,21.83 -571.56,171.28 -624.73,219.71 -30.34,27.64 -12.4,63.78 9.41,78.23 66.08,43.8 721.01,-90.85 858.54,-79.43z"/>
   <path class="fil0" d="M229.87 1730.85c38.04,0.14 171.89,-41.94 224.38,-54.44 78.1,-18.59 154.53,-32.39 237.12,-46.36 351.05,-59.38 710.31,-57.5 1061,-20.63 117.87,12.39 453.79,80.15 483.34,80.83 54.49,-60.91 57.74,-204.64 -4.45,-252.63 -87.81,-67.77 -831.09,-4.8 -953.94,3.35 -233.08,15.46 -675.69,59.69 -898.33,126.43 -92.09,27.61 -181.29,48.52 -149.13,163.46z"/>
   <path class="fil1" d="M1438.76 2183.28c-23.26,77.58 -122.57,74.13 -155.97,3.37 -32.09,-67.99 -2.01,-156.81 69.41,-165.17 64.26,-7.52 68.23,21.57 105.12,33.43 44.57,14.33 68.27,-19.62 48.52,-56.44 -23.58,-43.95 -136.43,-65.69 -207.3,-43.91 -136.6,41.98 -162.43,236.7 -49.76,324.15 116.33,90.29 310.56,6.88 277.75,-162.27 -36.88,-22.83 -120.32,-25.57 -166.33,-9.09 -5,16.79 -14,42.43 10,57.1l61.66 15.85c1.33,-2.09 4.8,1.63 6.91,2.98z"/>
   <path class="fil1" d="M194 2322.53c145.63,-54.85 145.01,62.9 15.26,63.18l-15.26 -63.18zm-39.71 -134.74c16.33,-9.61 55.28,-9.87 78.07,-1.89 12.57,49.02 -20.82,72.61 -65.97,59.5l-12.1 -57.61zm-92.76 -37.41c-9.96,49.12 33.22,153.45 48.41,199.38 26.67,80.61 17.47,143.66 113.53,114.18 68.27,-20.95 137.44,-31.57 160.33,-91.03 12.56,-32.64 6.28,-70.87 -10.13,-94.57 -25.09,-36.21 -46.48,-24.03 -73.02,-48.08 84.67,-92.67 -66.38,-189.11 -239.11,-79.88z"/>
   <path class="fil1" d="M2002.38 2097.03c34.61,-1.04 61.35,6.83 87.11,19.44l-6.37 55.62c-39.23,10.96 -55.7,3.96 -98.92,-5.41l18.18 -69.66zm74.33 152.91c1.83,-1.26 4.58,-2.35 5.96,-2.96l24.64 -10.08c11.47,-4.46 15.02,-4.31 28.35,-12.41 17.24,-10.48 27.45,-20.57 35.5,-39.53 18.79,-44.27 8.37,-89.37 -19.67,-117.5 -29.39,-29.48 -194.47,-80.06 -225.37,-43.46 -0.26,0.31 -117,412.61 12.19,329.91 26.35,-16.87 18.47,-80.89 39.06,-114.46 20.02,20.47 36.35,57.44 50.93,84.59 14,26.06 25.04,65.28 58.63,70.36 106.31,16.09 -2.44,-128.4 -10.22,-144.45z"/>
   <path class="fil1" d="M922.19 2042.96l86.42 2.09c40.33,61.06 -11.47,81.94 -83.5,70.83l-2.92 -72.93zm186.77 47.18c28.55,-175.1 -258.37,-128.11 -275.23,-93.24 -11.27,23.31 16.26,216.87 21.18,258.38 4.35,36.69 14,99.85 68.05,66.75 33.56,-20.56 12.37,-96.57 11.02,-133.54 29.63,14.72 63.4,55.1 88.46,83.01 30.83,34.35 44.27,54.51 96.64,28.81 13.1,-84.25 -66.81,-73.28 -79.94,-133.7 36.28,-17.21 62.6,-32.19 69.82,-76.48z"/>
   <path class="fil1" d="M602.33 2296.18c-101.53,-2.65 -73.59,-175.98 -117.17,-252.99 -109.91,-21.05 -70.61,75.73 -36.04,209.96 49.96,193.99 342.64,153.46 317.19,-67.96 -15.84,-137.83 -12.57,-227.48 -103.92,-175.98 -19.33,88.39 87.47,290.81 -60.06,286.96z"/>
   <path class="fil1" d="M2204.56 2336.69c-40.52,62.96 14.13,94.31 79.8,114.5 153.74,47.28 252.04,-107.39 115.22,-198.26 -22.15,-14.71 -61.74,-26.93 -62.78,-54.33 -1.51,-39.55 47.22,-24.88 69.83,-12.5 23.39,12.8 60.09,46.16 84.43,9.25 43.8,-66.44 -129.44,-131.51 -203.53,-85.17 -45.89,28.7 -68.13,102.2 -25.66,146.84 32.04,33.67 127.71,61.24 99.87,109.54 -13.33,15.38 -26.66,10.73 -26.75,10.74 -54.38,6.08 -59.1,-50.26 -130.43,-40.62z"/>
   <path class="fil1" d="M1735 2118.43l-36.78 -3.11 7.07 -65.03c18.06,-2.52 18.78,-4.61 38.95,-1.01 33.02,5.89 20.23,7.57 26.82,11.87l65.94 -9.77c21.89,-59.81 -11.48,-65.72 -67.75,-70.56 -44.63,-3.84 -90.5,-13.8 -131.9,-3.85 -22.5,36.03 -46.07,269 -32.35,329.16 30.75,19.88 78.75,21.35 122.8,26.61 51.76,6.18 87.79,8.84 77.56,-53.39 -36,-25.03 -65.3,-21.02 -118.2,-26.6l6.88 -60.85c51.86,-6.92 70.01,12.67 119.92,-5.64l2.48 -44.18c-24.12,-20.36 -37.21,-23.6 -81.44,-23.64z"/>
   <path class="fil2" d="M557.91 1803.44c101.35,-34.51 145.58,112.2 17.33,115.7 -4.02,-21.78 -7.36,-33.54 -13.28,-53.54 -7.62,-25.77 -15,-41.07 -4.05,-62.17zm2.8 137.09c184.45,10.56 142.73,-222.39 -43.76,-147.73l43.76 147.73z"/>
   <path class="fil2" d="M1599.54 1759.54c23.43,93.44 -51.22,132.87 -91.18,84.25 -33.07,-40.24 -11.72,-120.43 75.94,-98.52l15.23 14.27zm24.6 73.74c48.36,-98.89 -94.84,-162.89 -144.2,-72.2 -52.35,96.19 93.96,174.93 144.2,72.2z"/>
   <path class="fil2" d="M1727.38 1737.5c-20.4,25.17 -27.13,86.73 -24.79,112.24 6.04,65.65 118.78,84.05 142.49,1.37 7.82,-27.27 22.4,-77.38 7.3,-98.23 -29.53,13.58 -20.83,89.64 -50.8,128.51 -42.64,7.02 -73.7,5.57 -75.34,-39.51 -0.67,-18.46 5.5,-36.43 8.13,-52.3 5.67,-34.33 3.56,-36.43 -6.98,-52.07z"/>
   <path class="fil2" d="M765.61 1774.94c35.72,-22.01 36.54,-2.02 60.08,-25 -23.75,-17.61 -55.42,-5.05 -87.69,1.62 -1.53,24.59 11.13,146.04 33.37,151.16 1.88,0.43 4.81,1.83 7.16,2.24 76.07,12.93 68,-24.82 68.03,-24.88l-63.96 -0.27 -4.79 -39.94 50.47 -14.91c-11.85,-12.37 1.98,-9.2 -25.36,-13.78 -0.01,0 -26.93,2.07 -31.43,2.39l-5.88 -38.61z"/>
   <path class="fil2" d="M1962.76 1799.94c37.02,-13.06 34.99,4.98 57.09,6.45 19.86,1.32 3.3,1.5 14.13,-6.45 -32.97,-36.69 -83.03,-37.96 -104.74,8.33 -5.93,39.55 45.65,42.27 68.2,75.18l-5.44 23.21c-54.09,26.65 -40.78,-7.3 -86.87,-4.7 9.08,26.24 35.5,37.78 72.23,32.89 35.61,-4.74 43.33,-20.32 47.8,-51.57 -26.59,-58.56 -69.49,-26.22 -62.41,-83.33z"/>
   <path class="fil2" d="M1218.61 1848.65c-18.18,-17.26 -43.2,-45.92 -22.71,-89.12 19.6,-41.31 59.64,-25.12 100.91,-17.71 -19.53,-67.91 -131.37,-30.67 -134.29,41.47 -3.45,85.46 94.16,117.01 135,66.65 -33.49,-16.09 -17.05,6.54 -78.91,-1.3z"/>
   <path class="fil2" d="M914.04 1816.81c3.12,26.43 3.22,43.07 13.34,66.86 34.13,6.24 49.35,3.5 76.31,-5.83 -20.25,-19.95 -12.68,-13.27 -56.13,-14.45 -7.75,-38.15 -1.87,-107.93 -28.52,-133.79 -21.39,25.18 -11.46,32.59 -5.01,87.22z"/>
   <path class="fil2" d="M1089.76 1791.43c-0.71,-10.73 -1.54,-41.61 -3.37,-50.13 -5.18,-24.09 -11.2,-16.7 -12.17,-21.7 -0.53,-2.74 -3.49,-2.01 -5.17,-3.12 -15.65,25.96 -5.87,51.83 -3.55,84.88 6.64,94.24 2.57,64.29 20.21,73.97 13.29,-24.52 6.14,-52.14 4.05,-83.89z"/>
   <path class="fil2" d="M1390.02 1862.81c-1.11,-23.29 1.47,-46.81 3.69,-71.19 0.83,-9.09 4.14,-35.15 3.93,-42.39 -0.96,-32.81 -6.31,-26.96 -11.92,-33.51l-14.85 142.41c12.83,7.88 0.93,4.83 19.15,4.68z"/>
  </g>
 </g>
</svg>
